<svg width="75" height="75" viewBox="0 0 75 75" fill="none" xmlns="http://www.w3.org/2000/svg">
<path d="M23.875 32.4375C23.875 33.2188 23.9375 33.8438 24.0938 34.375C24.25 34.75 24.4688 35.25 24.75 35.8125C24.875 35.9375 24.9063 36.125 24.9063 36.2812C24.9063 36.5 24.7813 36.6875 24.5 36.9063L23.1875 37.7813C23 37.9063 22.8125 37.9687 22.6563 37.9687C22.4375 37.9687 22.25 37.8438 22.0313 37.6563C21.75 37.3438 21.5 37.0312 21.2813 36.6875C21.0938 36.3437 20.875 35.9375 20.6563 35.4688C19.0313 37.375 17 38.3438 14.5313 38.3438C12.7813 38.3438 11.4063 37.8437 10.375 36.8438C9.375 35.8438 8.84375 34.5 8.84375 32.8125C8.84375 31.0938 9.46875 29.6875 10.7188 28.5625C12 27.5 13.6875 26.9375 15.8125 26.9375C16.5313 26.9375 17.1875 27 18.0313 27.125C18.75 27.2188 19.5938 27.375 20.4063 27.5625V26.0625C20.4063 24.4688 20.0938 23.4375 19.4375 22.7188C18.75 22.0625 17.6563 21.7812 16.0625 21.7812C15.3125 21.7812 14.5625 21.875 13.8125 22.0313C13.0313 22.2188 12.2813 22.4375 11.5625 22.75C11.2188 22.875 10.9375 22.9688 10.8438 23C10.6875 23.0625 10.5938 23.0625 10.5 23.0625C10.2188 23.0625 10.0625 22.875 10.0625 22.4375V21.4062C10.0625 21.0937 10.0938 20.8437 10.2188 20.6875C10.3125 20.5312 10.5 20.4063 10.7813 20.3125C11.5313 19.875 12.375 19.5625 13.4063 19.3125C14.4375 19.0312 15.5 18.9063 16.6563 18.9063C19.125 18.9063 20.9375 19.4688 22.0938 20.5938C23.25 21.7188 23.8125 23.4375 23.8125 25.7187V32.4375H23.875ZM15.4375 35.625C16.125 35.625 16.8125 35.5 17.5625 35.25C18.3125 35 18.9688 34.5313 19.5313 33.9063C19.875 33.5 20.125 33.0625 20.3125 32.5625C20.3125 32.0625 20.4688 31.4688 20.4688 30.75V29.9062C19.8438 29.6875 19.2188 29.6875 18.5313 29.5312C17.875 29.4687 17.1875 29.4062 16.5938 29.4062C15.1875 29.4062 14.1875 29.6875 13.5 30.25C12.8125 30.8125 12.5 31.5937 12.5 32.625C12.5 33.625 12.7188 34.375 13.25 34.8437C13.75 35.375 14.4688 35.625 15.4375 35.625ZM32.125 37.8437C31.75 37.8437 31.5 37.7813 31.25 37.6563C31.1563 37.5 31 37.2187 30.875 36.8438L26 20.7813C25.875 20.3125 25.8125 20.0938 25.8125 19.9375C25.8125 19.5938 25.9688 19.4063 26.3125 19.4063H28.3438C28.75 19.4063 29.0313 19.4688 29.1563 19.625C29.3438 19.75 29.4688 20.0313 29.5938 20.4375L33.0625 34.1875L36.3125 20.4375C36.4063 20.0313 36.5313 19.75 36.7188 19.625C36.875 19.5 37.1563 19.4063 37.5 19.4063H39.2188C39.5938 19.4063 39.875 19.4688 40.0313 19.625C40.1875 19.75 40.3438 20.0313 40.4375 20.4375L43.75 34.375L47.3125 20.4375C47.4375 20.0313 47.5938 19.75 47.7188 19.625C47.9063 19.5 48.1563 19.4063 48.5313 19.4063H50.4688C50.8125 19.4063 51 19.5938 51 19.9375C51 20.0313 50.9687 20.1563 50.9375 20.3125C50.9375 20.3125 50.875 20.5625 50.8125 20.7813L45.7813 36.8438C45.6563 37.2813 45.5313 37.5 45.3125 37.6563C45.1875 37.7813 44.9063 37.875 44.5625 37.875H42.7813C42.375 37.875 42.1875 37.8125 41.9375 37.6563C41.7813 37.5 41.625 37.25 41.5625 36.8438L38.3438 23.4375L35.125 36.8125C35.0313 37.2187 34.9063 37.5 34.75 37.6563C34.5625 37.7813 34.2813 37.8437 33.9063 37.8437H32.125ZM58.8438 38.4062C57.8125 38.4062 56.6562 38.2813 55.625 38.0313C54.5937 37.7813 53.7813 37.5 53.25 37.2187C52.9063 37.0312 52.6875 36.8125 52.5938 36.625C52.5 36.4375 52.4688 36.25 52.4688 36.0625V35C52.4688 34.5625 52.625 34.375 52.9375 34.375C53.125 34.375 53.125 34.375 53.3125 34.375C53.4375 34.375 53.625 34.5312 53.8438 34.625C54.5313 34.9375 55.3125 35.1875 56.125 35.3438C56.9687 35.5 57.8125 35.5938 58.5938 35.5938C59.9063 35.5938 60.9375 35.375 61.625 34.9063C62.3437 34.375 62.7188 33.7813 62.7188 32.9375C62.7188 32.3438 62.5 31.875 62.1562 31.4687C61.7812 31.0937 61.0625 30.7187 60.0625 30.4062L57.0313 29.4688C55.5313 28.9688 54.4063 28.2813 53.7188 27.3438C53.0313 26.4375 52.6875 25.4063 52.6875 24.3125C52.6875 23.4375 52.875 22.6875 53.25 22.0313C53.625 21.3438 54.125 20.7813 54.6875 20.3125C55.375 19.8438 56.0625 19.5 56.9062 19.25C57.7187 19 58.5937 18.875 59.5312 18.875C59.9687 18.875 60.4375 18.9063 60.9375 18.9688C61.375 19.0313 61.8125 19.125 62.25 19.1875C62.6875 19.3125 63.0625 19.4063 63.4375 19.5313C63.8125 19.6563 64.0625 19.7812 64.3125 19.9062C64.5938 20.0625 64.8125 20.2188 64.9375 20.4063C65.0625 20.5938 65.125 20.8125 65.125 21.0938V22.0938C65.125 22.5313 64.9688 22.75 64.6563 22.75C64.5 22.75 64.2188 22.6562 63.8438 22.5C62.6875 21.9687 61.3438 21.6875 59.875 21.6875C58.6875 21.6875 57.8125 21.875 57.0938 22.2813C56.4688 22.6563 56.125 23.2812 56.125 24.125C56.125 24.7187 56.3438 25.2187 56.75 25.5937C57.1563 26 57.9375 26.375 59.0312 26.75L62 27.6875C63.5 28.125 64.5625 28.8125 65.2188 29.6875C65.8438 30.5313 66.1563 31.5 66.1563 32.5938C66.1563 33.4688 65.9688 34.2812 65.625 35C65.25 35.6875 64.75 36.3125 64.0625 36.8125C63.4688 37.3437 62.6875 37.7187 61.8125 38C60.9375 38.2812 59.875 38.4062 58.8438 38.4062ZM62.75 48.5312C55.9063 53.5625 45.9688 56.25 37.5 56.25C25.4688 56.25 14.6875 51.8125 6.53125 44.4687C5.875 43.875 6.46875 43.0937 7.25 43.5625C16.0625 48.6562 26.9063 51.75 38.1563 51.75C45.75 51.75 54.0938 50.1875 61.75 46.875C62.9063 46.4063 63.875 47.6875 62.75 48.5312ZM65.625 45.3125C64.7188 44.1563 59.8125 44.75 57.5938 45C56.9375 45.0937 56.8437 44.5 57.4375 44.0625C61.3437 41.3438 67.7813 42.1875 68.5 43.0313C69.25 43.9688 68.3125 50.4063 64.6563 53.4688C64.0625 53.9375 63.5313 53.6875 63.7813 53.125C64.625 51 66.4688 46.375 65.625 45.3125Z" fill="#1F1F1F"/>
</svg>
