<svg width="50" height="75" viewBox="0 0 50 75" fill="none" xmlns="http://www.w3.org/2000/svg">
<path d="M0 12C0 5.37258 5.37258 0 12 0H25V25H12C5.37258 25 0 19.6274 0 13V12Z" fill="#4D533C"/>
<path d="M25 0H38C44.6274 0 50 5.37258 50 12V13C50 19.6274 44.6274 25 38 25H25V0Z" fill="#C4CFA1"/>
<path d="M25 37C25 30.3726 30.3726 25 37 25H38C44.6274 25 50 30.3726 50 37V38C50 44.6274 44.6274 50 38 50H37C30.3726 50 25 44.6274 25 38V37Z" fill="#C4CFA1"/>
<path d="M0 37C0 30.3726 5.37258 25 12 25H25V50H12C5.37258 50 0 44.6274 0 38V37Z" fill="#1F1F1F"/>
<path d="M0 62C0 55.3726 5.37258 50 12 50H25V63C25 69.6274 19.6274 75 13 75H12C5.37258 75 0 69.6274 0 63V62Z" fill="#4D533C"/>
</svg>
