<svg width="50" height="50" viewBox="0 0 50 50" fill="none" xmlns="http://www.w3.org/2000/svg">
<path d="M41.6667 37.5H37.5V19.2708L25 27.0833L12.5 19.2708V37.5H8.33333V12.5H10.8333L25 21.3542L39.1667 12.5H41.6667M41.6667 8.33334H8.33333C6.02083 8.33334 4.16666 10.1875 4.16666 12.5V37.5C4.16666 38.6051 4.60565 39.6649 5.38705 40.4463C6.16845 41.2277 7.22826 41.6667 8.33333 41.6667H41.6667C42.7717 41.6667 43.8315 41.2277 44.6129 40.4463C45.3943 39.6649 45.8333 38.6051 45.8333 37.5V12.5C45.8333 10.1875 43.9583 8.33334 41.6667 8.33334Z" fill="#1F1F1F"/>
</svg>
