<svg width="42" height="50" viewBox="0 0 42 50" fill="none" xmlns="http://www.w3.org/2000/svg">
<path d="M8.10984 37.6289H2.34502C1.11454 37.6289 0.17589 36.5283 0.370077 35.3132L5.74455 1.68437C5.89964 0.713959 6.73676 0 7.71949 0H23.216C23.317 0 23.413 0.00671014 23.5122 0.0254467C24.7475 0.258747 33.4809 2.22604 33.1615 11.1684C32.8496 19.9009 24.0464 23.114 22.4215 23.6335C22.2513 23.6879 22.0744 23.7113 21.8957 23.7113H13.8833C12.9101 23.7113 12.0782 24.4118 11.9125 25.3707L10.0806 35.9695C9.91488 36.9284 9.08298 37.6289 8.10984 37.6289Z" fill="#C4CFA1"/>
<path d="M16.0136 50H10.2488C9.01831 50 8.07967 48.8994 8.27386 47.6843L13.6483 14.0555C13.8034 13.0851 14.6405 12.3711 15.6233 12.3711H31.1198C31.2208 12.3711 31.3167 12.3778 31.4159 12.3965C32.6513 12.6298 41.3847 14.5971 41.0653 23.5395C40.7534 32.272 31.9502 35.4851 30.3253 36.0046C30.1551 36.059 29.9782 36.0824 29.7995 36.0824H21.7871C20.8139 36.0824 19.982 36.7829 19.8163 37.7418L17.9844 48.3406C17.8187 49.2995 16.9868 50 16.0136 50Z" fill="#4D533C" fill-opacity="0.5"/>
</svg>
