<svg width="38" height="48" viewBox="0 0 38 48" fill="none" xmlns="http://www.w3.org/2000/svg">
<path fill-rule="evenodd" clip-rule="evenodd" d="M1.84262 2.68537L27.9345 0.625481V6.62794C27.9345 6.7118 28.0315 6.75841 28.097 6.70603L30.372 4.88598C30.4086 4.85676 30.4605 4.85676 30.497 4.88598L32.772 6.70603C32.8375 6.75841 32.9345 6.7118 32.9345 6.62794V0.230744L35.7771 0.00632838C36.9401 -0.0854873 37.9345 0.833507 37.9345 2.00012V45.2521C37.9345 46.3889 36.9882 47.2971 35.8524 47.2504L3.28655 45.9121C2.24172 45.8692 1.40634 45.0286 1.36989 43.9835L0.00123672 4.74889C-0.036081 3.67912 0.775512 2.76961 1.84262 2.68537ZM14.6875 39.0469C16.125 39.9219 17.6953 40.3594 19.3984 40.3594C21.1328 40.3594 22.7109 39.9375 24.1328 39.0937C25.5547 38.25 26.6953 37.1016 27.5547 35.6484C28.3984 34.1953 28.8203 32.5547 28.8203 30.7266C28.8203 28.8359 28.3516 27.2422 27.4141 25.9453C26.4922 24.6484 25.2344 23.5547 23.6406 22.6641C23.5469 22.6172 23.2734 22.4766 22.8203 22.2422C22.3672 21.9922 21.8594 21.7188 21.2969 21.4219C20.75 21.1094 20.25 20.8281 19.7969 20.5781C19.3437 20.3281 19.0547 20.1719 18.9297 20.1094C17.7422 19.4688 16.9219 18.7969 16.4687 18.0938C16.0312 17.3906 15.8125 16.5156 15.8125 15.4688C15.8125 14.4375 16.1641 13.5469 16.8672 12.7969C17.5703 12.0469 18.4141 11.6719 19.3984 11.6719C20.3672 11.6719 21.2031 12.0234 21.9062 12.7266C22.6094 13.4297 22.9609 14.3438 22.9609 15.4688L23.0078 19.4063C23.0078 19.5313 23.0703 19.5938 23.1953 19.5938H28.5859C28.7109 19.5938 28.7734 19.5313 28.7734 19.4063V15.4688C28.7734 13.7031 28.3437 12.1094 27.4844 10.6875C26.6406 9.26563 25.5078 8.125 24.0859 7.26563C22.6641 6.42188 21.1016 6 19.3984 6C17.7422 6 16.2031 6.42188 14.7812 7.26563C13.375 8.09375 12.2344 9.21875 11.3594 10.6406C10.4844 12.0781 10.0469 13.6875 10.0469 15.4688C10.0469 17.4063 10.4687 19.1563 11.3125 20.7188C12.1719 22.2656 13.4766 23.5547 15.2266 24.5859C15.7109 24.8516 16.2109 25.1328 16.7266 25.4297C17.2422 25.7109 17.7734 26 18.3203 26.2969C18.8672 26.5938 19.3359 26.8594 19.7266 27.0938C20.1328 27.3125 20.4609 27.5 20.7109 27.6563C22.2422 28.5313 23.0078 29.5547 23.0078 30.7266C23.0078 31.7422 22.6562 32.6406 21.9531 33.4219C21.25 34.1875 20.3984 34.5703 19.3984 34.5703C18.4141 34.5703 17.5703 34.1953 16.8672 33.4453C16.1641 32.6797 15.8125 31.7734 15.8125 30.7266V28.5234C15.8125 28.3516 15.75 28.2656 15.625 28.2656H10.2344C10.0781 28.2656 10 28.3516 10 28.5234V30.7266C10 32.4766 10.4219 34.0859 11.2656 35.5547C12.125 37.0078 13.2656 38.1719 14.6875 39.0469Z" fill="#1F1F1F"/>
</svg>
