<svg width="40" height="40" viewBox="0 0 40 40" fill="none" xmlns="http://www.w3.org/2000/svg">
<path d="M2.00264 14.5109H17.6005C17.6005 14.5109 18.3613 4.99995 9.99177 5C1.62222 5.00005 2.00264 14.5109 2.00264 14.5109ZM2.00264 14.5109C2.00264 14.5109 2.76352 24.4022 9.99178 24.4022C17.22 24.4022 17.6005 19.0761 17.6005 19.0761" stroke="#4D533C" stroke-width="3" stroke-linecap="round" stroke-linejoin="round"/>
<path d="M21.0217 23.6413L37 6.52173M21.0217 6.52173L37 23.6413" stroke="#4D533C" stroke-width="3" stroke-linecap="round" stroke-linejoin="round"/>
<path d="M14.9348 29.3478H17.5978V34.2935C17.5978 34.2935 17.5978 35.4348 16.0761 35.4348C14.5543 35.4348 14.1739 34.2935 14.1739 34.2935M24.0652 29.3478C22.7527 28.6474 21.4022 28.9673 21.0217 29.3478C20.6413 29.7283 20.2609 30.8695 21.0217 31.6304C21.7826 32.3913 22.5435 32.3913 23.6848 32.3913C24.8261 32.3913 25.2065 34.6739 23.6848 35.0543C22.163 35.4347 21.0217 35.0543 21.0217 35.0543" stroke="#4D533C" stroke-width="2" stroke-linecap="round" stroke-linejoin="round"/>
</svg>
